<svg xmlns="http://www.w3.org/2000/svg" xmlns:xlink="http://www.w3.org/1999/xlink" width="1105.756" height="153.909" viewBox="0 0 1105.756 153.909"><defs><clipPath id="a"><rect width="1105.756" height="153.909" fill="none"/></clipPath></defs><g transform="translate(0 0)"><g transform="translate(0 0)" clip-path="url(#a)"><path d="M10.12,153.449C3.842,153.442-.01,149.013,0,138.685L.039,96.318l29.976.026L30,111.944c0,1.686.566,2.95,1.85,2.95,1.144,0,1.859-1.262,1.859-2.948l.019-20.236L9.889,91.689c-6.85,0-9.843-5.7-9.834-14.974L.108,14.957C.118,5.682,3.119,0,9.969,0L53.938.039c6.85.007,9.843,5.7,9.834,14.976l-.029,32.669-29.976-.024,0-5.9c0-1.686-.566-2.953-1.85-2.953s-1.859,1.264-1.859,2.95l-.01,11.38,23.839.022c6.85.007,9.841,5.7,9.831,14.974l-.06,70.4c-.01,9.275-3.011,14.966-10,14.959Z" transform="translate(0 0)" fill="#040504"/><path d="M61.135,114.925l2.278,0L63.519,1.739,93.5,1.765l-.1,111.082c0,1.476.568,2.107,1.423,2.11h1.712l.092-99.909c.007-9.275,3.011-14.961,10-14.957l19.983.019-.123,138.481c-.012,9.275-3.011,14.964-10,14.957l-4.855,0L75.376,153.3v.21l-35.833-.031c-6.847,0-9.841-5.7-9.834-14.976L29.832.024,49.673.041C55.954.046,59.805,4.475,59.8,14.8l-.087,97.17c0,2.11.421,2.953,1.426,2.953" transform="translate(41.845 0.034)" fill="#040504"/><path d="M103.254,38.751l-.1,114.663-29.976-.026.1-114.665ZM103.285.176l-.029,34.147L73.28,34.3,73.309.15Z" transform="translate(103.064 0.212)" fill="#040504"/><path d="M121.127,38.966l-2.141,0-.1,114.665L88.906,153.6,89.041.153,175.973.021c6.85,0,9.843,5.7,9.834,14.974l-.12,138.695-20.128-.019c-6.85,0-9.843-5.7-9.834-14.976l.087-96.958c0-1.9-.426-2.738-1.57-2.95h-1.568l-.1,114.875-20.125-.019c-6.855,0-9.848-5.7-9.839-14.976l.087-97.589c-.14-1.476-.708-1.9-1.566-2.11" transform="translate(125.223 0.03)" fill="#040504"/><path d="M164.591,39H162.45l-.1,114.665-29.978-.029L132.5.195,219.437.06c6.85.007,9.843,5.7,9.834,14.974l-.12,138.692-20.128-.019c-6.85,0-9.843-5.7-9.834-14.971l.087-96.958c0-1.9-.426-2.741-1.57-2.955h-1.568l-.1,114.875-20.125-.019c-6.855,0-9.848-5.7-9.839-14.974l.087-97.592c-.14-1.474-.708-1.9-1.566-2.11" transform="translate(186.441 0.085)" fill="#040504"/><path d="M205.915,38.842l-.1,114.663-29.976-.026.1-114.665ZM205.946.267l-.029,34.147-29.976-.029L175.97.241Z" transform="translate(247.661 0.34)" fill="#040504"/><path d="M223.788,38.981l-2.141,0-.1,114.665-29.978-.026L191.7.168l53.815.048c6.852.007,9.846,5.7,9.836,14.974l-.123,138.483-20.125-.017c-6.855-.007-9.848-5.7-9.839-14.976l.087-97.589c-.14-1.476-.568-1.9-1.565-2.11" transform="translate(269.819 0.237)" fill="#040504"/><path d="M284.56,118.637c1.855,0,2.57-1.474,2.575-4l.1-114.608h29.978l-.13,135.887c-.01,9.275-3.008,14.961-9.86,14.954l-53.815-.046.031-32.211Z" transform="translate(356.922 0.037)" fill="#040504"/><path d="M283.38,153.464,283.5,14.984c.01-9.275,3.011-14.964,9.86-14.957l43.822.039c7,0,9.99,5.7,9.981,14.976l-.123,138.481-29.976-.026.048-56.067-3.709,0-.048,56.069ZM313.457,41.778l-.029,32.038,3.709,0,.029-32.04c0-1.686-.568-2.95-1.852-2.95s-1.857,1.262-1.857,2.948" transform="translate(399.136 0.039)" fill="#040504"/><path d="M362.7.093c6.284.007,10.132,4.436,10.123,14.764l-.087,96.961c0,2.317.568,3.16,1.994,3.162h1.712l.1-113.189,29.976.029-.135,151.761-53.815-.048c-6.85,0-9.843-5.7-9.834-14.976L342.861.076Z" transform="translate(482.745 0.108)" fill="#040504"/><path d="M372.7,153.544l.123-138.481c.01-9.275,3.011-14.964,9.86-14.957l43.822.039c7,0,9.99,5.7,9.981,14.974L436.366,153.6l-29.976-.026.048-56.067-3.709,0-.048,56.069ZM402.78,41.858,402.751,73.9l3.709,0,.029-32.04c0-1.686-.568-2.95-1.852-2.95s-1.857,1.262-1.857,2.948" transform="translate(524.946 0.151)" fill="#040504"/><path d="M434.416,88.686H432.7l-.058,64.918-29.976-.026L402.8.129l53.815.048c6.421,0,9.844,5.7,9.839,13.709l-.046,48.059c-.007,9.273-3.011,14.964-9.86,14.957h-.144l0,2.953h.145c6.85,0,9.843,5.7,9.834,14.971l-.05,58.808-20.125-.017c-6.854-.007-9.848-5.7-9.839-14.974l.041-47c0-2.317-.568-2.953-1.992-2.953m2.04-49.742-3.709,0-.029,32.038,1.712,0c1.139,0,1.854-.421,2-2.107Z" transform="translate(567.149 0.182)" fill="#040504"/><path d="M442.751,153.609c-6.279-.007-10.13-4.436-10.121-14.764l.039-42.368,29.976.026-.014,15.6c0,1.686.566,2.95,1.85,2.95,1.144,0,1.859-1.262,1.859-2.948l.019-20.236-23.839-.022c-6.85,0-9.843-5.7-9.834-14.974l.053-61.758C432.749,5.842,435.75.155,442.6.16L486.569.2c6.85.007,9.843,5.7,9.834,14.976l-.029,32.669L466.4,47.819l0-5.9c0-1.686-.566-2.953-1.85-2.953s-1.859,1.264-1.859,2.95l-.01,11.38,23.839.022c6.85.007,9.841,5.7,9.831,14.974l-.06,70.4c-.01,9.275-3.011,14.966-10,14.959Z" transform="translate(609.353 0.226)" fill="#040504"/><path d="M9.215,6.91v.5H36.5v6.594H9.711c-.347,0-.5.125-.5.313V14.7H32.7c2.18,0,3.8.66,3.8,2.2v4.4H3.666c-2.18,0-3.666-.66-3.666-2.2V2.168C0,.66,1.486,0,3.666,0H36.5V4.367c0,1.38-1.32,2.23-3.748,2.23H9.908c-.5,0-.694.094-.694.313" transform="translate(638.782 113.866) rotate(180)" fill="#040504"/><path d="M36.5,6.6H28.145V0H36.5Zm-9.4,0H0V0H27.105Z" transform="translate(638.782 90.283) rotate(180)" fill="#040504"/><path d="M15.113,14.008H3.668c-2.182,0-3.668-.66-3.668-2.17V2.168C0,.66,1.486,0,3.668,0H36.505V6.6h-9.4v7.411H16.946V6.6H9.959c-.544,0-.742.123-.742.438v.376h5.9Z" transform="translate(638.785 81.395) rotate(180)" fill="#040504"/><path d="M3.666,6.594C1.486,6.594,0,5.934,0,4.427V0H36.5V4.427c0,1.508-1.618,2.168-3.8,2.168H20.067c-.4,0-.5.125-.5.407s.1.409.5.409H32.7c2.18,0,3.8.66,3.8,2.168v4.427H0V9.579C0,8.071,1.486,7.411,3.666,7.411H14.713c.5,0,.7-.125.7-.409s-.149-.407-.7-.407Z" transform="translate(638.782 65.097) rotate(180)" fill="#040504"/><path d="M15.113,14.008H3.668C1.486,14.008,0,13.348,0,11.84V2.168C0,.66,1.486,0,3.668,0H36.505V6.6h-9.4v7.411H16.946V6.6H9.959c-.544,0-.742.125-.742.438v.376h5.9Z" transform="translate(638.785 45.116) rotate(180)" fill="#040504"/><path d="M3.666,6.6C1.486,6.6,0,5.937,0,4.429V0H36.5V4.429c0,1.508-1.618,2.168-3.8,2.168H20.067c-.4,0-.5.125-.5.407s.1.409.5.409H32.7c2.18,0,3.8.66,3.8,2.168v4.427H0V9.581C0,8.073,1.486,7.413,3.666,7.413H14.713c.5,0,.7-.125.7-.409s-.149-.407-.7-.407Z" transform="translate(638.782 28.804) rotate(180)" fill="#040504"/><path d="M36.5,11.6H25.031V5.725c0-.157-.21-.26-.691-.26h-.829V11.6H12.806V5.465h-.831c-.484,0-.689.1-.689.26V11.6H0V1.8C0,.549,1.958,0,5,0h26.32C34.355,0,36.5.549,36.5,1.8Z" transform="translate(638.782 12.491) rotate(180)" fill="#040504"/><path d="M283.705,60.361H254.341V71.97h1.44c.159,0,.287.222.287.491v38.261c0,1.079-.833,2.064-2.584,2.064-1.724,0-2.873-.985-2.873-1.968l.087-7.647-.048-43.078c0-2.864.694-3.683,2.512-3.685l30.458-.026L283.585.368H230.911c-6.705,0-9.636,7.36-9.629,16.363l.108,119.894c.007,9,2.948,14.9,9.653,14.892h43.032c6.71-.007,9.639-5.944,9.629-15.152Z" transform="translate(311.672 0.519)" fill="#040504"/><path d="M375.766,60.361H346.4V71.97h1.44c.159,0,.287.222.287.491v38.261c0,1.079-.833,2.064-2.584,2.064-1.724,0-2.873-.985-2.873-1.968l.087-7.647-.048-43.078c0-2.864.694-3.683,2.512-3.685l30.458-.026L375.646.368H322.972c-6.705,0-9.636,7.36-9.629,16.363l.108,119.894c.007,9,2.948,14.9,9.653,14.892h43.032c6.71-.007,9.639-5.944,9.629-15.152Z" transform="translate(441.338 0.519)" fill="#040504"/></g></g></svg>