<svg xmlns="http://www.w3.org/2000/svg" xmlns:xlink="http://www.w3.org/1999/xlink" width="513.425" height="280.863" viewBox="0 0 513.425 280.863"><defs><clipPath id="a"><rect width="513.425" height="280.863" fill="none"/></clipPath></defs><g clip-path="url(#a)"><path d="M97.994,116.317c-4.761,0-7.683-3.359-7.683-11.185V73.014h22.724V84.837c0,1.279.435,2.237,1.409,2.237.865,0,1.407-.958,1.407-2.237V69.5H97.778c-5.193,0-7.467-4.31-7.467-11.34V11.342C90.311,4.312,92.585,0,97.778,0h33.331c5.2,0,7.467,4.312,7.467,11.342V36.109H115.85V31.637c0-1.279-.435-2.237-1.407-2.237s-1.409.958-1.409,2.237v8.626l16.517,1.559c5.193,0,9.024,2.753,9.024,9.781V104.97c0,7.03-2.272,11.347-7.574,11.347Z" transform="translate(118.609 0)" fill="#040504"/><path d="M128.873,74.084h1.094l-1-55.758h14.8l.564,54.748c0,.71.273,1.011.685,1.011h.821V26.2c0-4.444-.123-8.12,3.229-8.12h9.579L160.212,85.4c0,4.446-1.439,7.176-4.791,7.176H153.1l-17.38-.1v.1H118.541c-3.285,0-4.722-2.73-4.722-7.176l-1.557-67.321h9.51c3.01,0,5.638,3.086,5.638,8.039l.777,46.554c0,1.009.206,1.413.685,1.413" transform="translate(147.439 23.743)" fill="#040504"/><path d="M148.1,18.186l.588,17.165H134.323l-.245-17.165Zm.588,74.126H134.321V37.475h14.368Z" transform="translate(176.09 23.884)" fill="#040504"/><path d="M158.435,37.616h-1.027V92.574H143.04l-1.557-74.5h41.668c3.285,0,6.281,3.576,6.281,8.023V92.574h-9.647c-3.285,0-4.722-2.73-4.722-7.176V38.928c0-.907-.206-1.312-.754-1.416h-.752V92.574h-9.649c-3.285,0-4.722-2.73-4.722-7.176V38.627c-.067-.71-.342-.911-.752-1.011" transform="translate(185.815 23.743)" fill="#040504"/><path d="M180.25,37.616h-1.027V92.574H164.855l-1.557-74.5h41.668c3.285,0,6.281,3.576,6.281,8.023V92.574H201.6c-3.285,0-4.722-2.73-4.722-7.176V38.928c0-.907-.206-1.312-.754-1.416h-.752V92.574h-9.649c-3.285,0-4.722-2.73-4.722-7.176V38.627c-.067-.71-.342-.911-.752-1.011" transform="translate(214.466 23.743)" fill="#040504"/><path d="M199.48,35.493H185.112V18.078H199.48Zm0,56.961H185.112V37.616H199.48Z" transform="translate(243.115 23.743)" fill="#040504"/><path d="M207.92,37.616h-1.027V92.574H192.524l-.113-74.249,24.353-.248c3.283,0,6.278,3.676,6.278,8.12V92.574h-9.649c-3.285,0-4.722-2.73-4.722-7.176V38.627c-.067-.71-.271-.911-.752-1.011" transform="translate(252.701 23.743)" fill="#040504"/><path d="M139.084,95.4h.8V52.056h10.477V94.615c0,.551.2.789.5.789h.6V58.089c0-3.465,1.048-6.033,3.493-6.033h6.986V104.22c0,3.463-1.048,5.825-3.493,5.825H131.549c-2.4,0-3.442-2.362-3.442-5.825V52.056h6.935c2.2,0,3.542,2.1,3.542,5.952V94.3c0,.789.15,1.1.5,1.1" transform="translate(168.248 68.367)" fill="#040504"/><path d="M154.782,65.33H144.3V52.056h10.479Zm0,44.715H144.3V66.984h10.479Z" transform="translate(189.519 68.367)" fill="#040504"/><path d="M172.658,86.036v18.183c0,3.465-1.048,5.825-3.442,5.825H153.851c-2.4,0-3.445-2.36-3.445-5.825V52.055h10.479V66.983h11.773v16.14H160.885v11.1c0,.865.2,1.182.7,1.182h.594V86.036Z" transform="translate(197.534 68.366)" fill="#040504"/><path d="M172.077,104.22c0,3.463-1.048,5.825-3.442,5.825H161.6V52.056h7.037c2.394,0,3.442,2.57,3.442,6.033V78.162c0,.632.2.789.648.789s.65-.157.65-.789V58.089c0-3.463,1.046-6.033,3.442-6.033h7.035v57.989h-7.035c-2.4,0-3.442-2.362-3.442-5.825V86.666c0-.787-.2-1.1-.65-1.1s-.648.236-.648,1.1Z" transform="translate(212.233 68.367)" fill="#040504"/><path d="M197.575,86.036v18.183c0,3.465-1.048,5.825-3.442,5.825H178.766c-2.4,0-3.445-2.36-3.445-5.825V52.055H185.8V66.983h11.775v16.14H185.8v11.1c0,.865.2,1.182.7,1.182h.6V86.036Z" transform="translate(230.256 68.366)" fill="#040504"/><path d="M197,104.22c0,3.463-1.048,5.825-3.442,5.825h-7.037V52.056h7.037c2.394,0,3.442,2.57,3.442,6.033V78.162c0,.632.2.789.648.789s.652-.157.652-.789V58.089c0-3.463,1.043-6.033,3.44-6.033h7.035v57.989h-7.035c-2.4,0-3.44-2.362-3.44-5.825V86.666c0-.787-.2-1.1-.652-1.1s-.648.236-.648,1.1Z" transform="translate(244.968 68.367)" fill="#040504"/><path d="M216.16,52.056V70.278h-9.341c-.248,0-.414.331-.414,1.1v1.316h9.755V89.7H206.4V91.02c0,.768.167,1.1.414,1.1h9.341v17.928H200.577c-1.983,0-2.85-3.111-2.85-7.942V60.291c0-4.828.867-8.235,2.85-8.235Z" transform="translate(259.683 68.367)" fill="#040504"/><path d="M32.1,176.382c1.915,0,2.649-1.522,2.649-4.132V52.056H65.673v145c0,9.566-3.1,15.439-10.162,15.439H0V176.382Z" transform="translate(0 68.367)" fill="#040504"/><path d="M32.078,212.5V68.858c0-9.566,3.091-16.8,10.158-16.8H87.443c7.213,0,10.3,7.236,10.3,16.8V212.5H66.827V153.873H63V212.5ZM63,96.472v33.051h3.829V96.472c0-1.737-.588-3.042-1.913-3.042S63,94.735,63,96.472" transform="translate(42.129 68.367)" fill="#040504"/><path d="M116.7,52.056c6.48,0,10.454,5.931,10.454,16.587V168.66c0,2.392.59,3.262,2.063,3.262h1.765V52.056H161.9V212.5H106.391c-7.067,0-10.158-6.653-10.158-16.221V52.056Z" transform="translate(126.387 68.367)" fill="#040504"/><path d="M128.311,176.541V88.826c0-5.82,3.091-9.394,10.158-9.394h45.207c7.213,0,10.3,3.574,10.3,9.394v87.715H163.06V140.56h-3.829v35.982Zm30.92-70.911v20.112h3.829V105.631a1.915,1.915,0,0,0-3.829,0" transform="translate(168.516 104.321)" fill="#040504"/><path d="M193.077,135h-1.767V176.54h-30.92V79.433H215.9c6.625,0,10.158,3.572,10.158,8.6V118.2c0,5.823-3.091,9.394-10.158,9.394h-.148v1.853h.148c7.067,0,10.158,3.572,10.158,9.392v37.7H205.3c-7.07,0-10.16-4.356-10.16-10.179v-29.5c0-1.457-.588-1.853-2.061-1.853m2.061-31.225h-3.829v20.112h1.767c1.177,0,1.915-.266,2.061-1.326Z" transform="translate(210.645 104.323)" fill="#040504"/><path d="M202.92,176.54c-6.48,0-10.454-3.563-10.454-10.047V139.9h30.92v9.792a1.719,1.719,0,0,0,1.915,1.851,1.79,1.79,0,0,0,1.913-1.851v-12.7H202.624c-7.067,0-10.158-3.572-10.158-9.395V88.825c0-5.82,3.091-9.392,10.158-9.392h45.353c7.067,0,10.16,3.572,10.16,9.392v20.51H227.215v-3.706a1.915,1.915,0,0,0-3.829,0v7.146h24.591c7.067,0,10.16,3.572,10.16,9.394v44.192c0,5.823-3.093,10.179-10.306,10.179Z" transform="translate(252.773 104.323)" fill="#040504"/><path d="M241.9,73.346h-16.54V83.759h2.05c.09,0,.162.2.162.44l-.555,33.992c0,.509.1,1.957-1.548,1.957a2,2,0,0,1-2.212-1.55l.049-6.857-.028-38.635c0-2.568.391-3.3,1.416-3.3l17.158-.023-.018-50.917-31.23-.248c-3.778,0-3.87,7.528-3.866,15.6l.06,107.524c0,8.074,1.661,13.026,5.436,13.02h24.241c3.78,0,5.429-4.994,5.425-13.253Z" transform="translate(271.521 24.448)" fill="#040504"/><path d="M130.289,115.737H99.119V128.06h1.529c.169,0,.305.234.305.523v40.611c0,1.145-.886,2.191-2.746,2.191-1.83,0-3.049-1.046-3.049-2.089l.093-8.115L95.2,115.452c0-3.04.736-3.907,2.667-3.91l32.329-.028-.035-59.46H74.251c-7.118,0-10.23,7.814-10.223,17.371l.116,127.261c.009,9.556,3.128,15.816,10.246,15.809h45.679c7.123-.007,10.23-6.311,10.22-16.085Z" transform="translate(84.091 68.366)" fill="#040504"/></g></svg>